<svg xmlns="http://www.w3.org/2000/svg" version="1.1" xmlns:xlink="http://www.w3.org/1999/xlink" xmlns:svgjs="http://svgjs.com/svgjs" width="50%" height="50%" viewBox="0 0 1000 600"><rect width="1000" height="600" x="0" y="0" fill="#ccf381"/><g><circle r="166.66666666666666" cx="371.54567972819007" cy="393.7679128060937" fill="#4831d4" transform="matrix(0.610116009428199,0,0,0.6101160094281989,0,59.75586188029702)"/><path d="M377.7032672916918 468.7679278074851L363.63711984934235 468.7679278074851L312.7713626044977 335.81073331092045L311.92505912767587 335.81073331092045Q313.3842030532308 351.5986705854247 313.3842030532308 373.33991507619305L313.3842030532308 373.33991507619305L313.3842030532308 468.7679278074851L297.2752541151044 468.7679278074851L297.2752541151044 318.76793226043895L323.53984477509306 318.76793226043895L371.02038811265027 442.50333714749644L371.8666915894721 442.50333714749644L419.7557952261847 318.76793226043895L445.8161057365956 318.76793226043895L445.8161057365956 468.7679278074851L428.39392726546987 468.7679278074851L428.39392726546987 372.114234178727Q428.39392726546987 355.5091763059119 429.8238883125137 336.01501346049815L429.8238883125137 336.01501346049815L429.0067677142029 336.01501346049815L377.7032672916918 468.7679278074851Z " fill="#ccf381" transform="matrix(0.610116009428199,0,0,0.6101160094281989,0,59.75586188029702)"/><path d="M636.0392201381753 454.1935770205873L636.0392201381753 351.041637930779L621.5456857348541 347.8358189828325L623.4314615865873 338.5416379992901L663.8948234337778 338.5416379992901L705.166374931711 437.2485340100129L706.7019352681224 437.2485340100129L746.2762884994956 338.5416379992901L787.6825382725526 338.5416379992901L789.5683141242858 347.8358189828325L775.155598686039 351.041637930779L775.155598686039 454.1935770205873L789.5683141242858 457.39939596853384L787.6825382725526 466.6935769520762L744.5790902329358 466.6935769520762L742.6933143812025 457.39939596853384L757.1868487845237 454.1935770205873L757.1868487845237 352.0922844767447L755.6512884481123 352.0922844767447L709.0726249103012 466.6935769520762L699.1049525511398 466.6935769520762L650.8021510917441 352.0922844767447L649.2935304103574 352.0922844767447L649.2935304103574 454.1935770205873L663.7062458486045 457.39939596853384L661.7935303418463 466.6935769520762L623.4314615865873 466.6935769520762L621.5456857348541 457.39939596853384L636.0392201381753 454.1935770205873ZM831.8905121681847 361.844439595708L831.8905121681847 428.5200857819905Q831.8905121681847 443.30995639058403 837.1168052429883 450.36814600707135Q842.3161586627672 457.39939596853384 854.8161585942561 457.39939596853384L854.8161585942561 457.39939596853384Q861.6318913155204 457.39939596853384 868.3668050717107 454.1935770205873Q875.074779172876 450.960818417616 880.3818912127539 445.3843098274906L880.3818912127539 445.3843098274906L880.3818912127539 376.44573261912825L863.0596930318328 373.212974016157L864.945468883566 363.94573268763935L897.4346928434273 361.844439595708L897.4346928434273 454.1935770205873L911.9282272467484 457.39939596853384L910.0424513950153 466.6935769520762L887.790296344563 468.7679303889828L882.2946067195118 451.93064599850743Q874.616805037455 460.9284907767775 866.0499947395812 464.83474075536776Q857.4831844417073 468.7679303889828 847.1383569121992 468.7679303889828L847.1383569121992 468.7679303889828Q831.2439604475906 468.7679303889828 823.0543053200633 459.7700856107127Q814.8646501925361 450.7722408324428 814.8646501925361 432.69573231082836L814.8646501925361 432.69573231082836L814.8646501925361 376.44573261912825L800.3711157892149 373.212974016157L802.2568916409481 363.94573268763935L831.8905121681847 361.844439595708ZM948.215942565101 318.7679312111158L948.215942565101 377.01146537464825L949.5359856613144 377.5771981301682Q955.2202528715387 370.08797403328475 962.3592614531003 365.9662068144964Q969.5252096896867 361.844439595708 979.6545199789966 361.844439595708L979.6545199789966 361.844439595708Q995.926071613952 361.844439595708 1004.7892181170982 372.4047843654142Q1013.6523646202445 382.9651291351203 1013.6523646202445 403.6278445391117L1013.6523646202445 403.6278445391117L1013.6523646202445 412.5179306972827Q1013.6523646202445 438.7571546913995 1001.664218134226 453.76254254019113Q989.6760716482075 468.7679303889828 969.7946062399343 468.7679303889828L969.7946062399343 468.7679303889828Q961.6588304224566 468.7679303889828 950.4249942771313 466.8013355721753Q939.218097786831 464.807801100343 931.1631409344276 462.6256890433374L931.1631409344276 462.6256890433374L931.1631409344276 333.34228457951133L916.6696065311063 330.10952597654006L918.5553823828396 320.84228464802237L948.215942565101 318.7679312111158ZM996.599562989571 417.1515513615415L996.599562989571 405.8907755611916Q996.599562989571 389.51146530613715 990.7267181941733 381.34874983363466Q984.8538733987754 373.212974016157 973.6739165634998 373.212974016157L973.6739165634998 373.212974016157Q967.1545200475076 373.212974016157 960.2310287061442 377.4424998550444Q953.3075373647808 381.64508603890704 948.215942565101 387.32935324913154L948.215942565101 387.32935324913154L948.215942565101 454.8670683962064Q952.8495632293599 455.80995632207294 959.1534425051537 456.6181459728158Q965.4303821259231 457.39939596853384 971.6803820916674 457.39939596853384L971.6803820916674 457.39939596853384Q977.472407921991 457.39939596853384 982.6178820317203 455.6213787368996Q987.7902957964742 453.81642185024066 990.8344768142723 451.526551173136L990.8344768142723 451.526551173136Q992.8010716310797 447.3778442993229 994.7137871378378 437.7065081454339Q996.599562989571 428.0621116465695 996.599562989571 417.1515513615415L996.599562989571 417.1515513615415ZM1111.47025201515 397.0815083680949L1111.47025201515 454.1935770205873L1127.8765019252296 457.39939596853384L1125.9637864184715 466.6935769520762L1101.825855516286 468.7679303889828L1096.3301658912346 452.0114649635817Q1088.9487004144503 461.0093097418518 1080.5165883917002 464.8886200654173Q1072.0844763689502 468.7679303889828 1062.2245626298877 468.7679303889828L1062.2245626298877 468.7679303889828Q1048.9702523577057 468.7679303889828 1040.8883558502775 462.1407752528917Q1032.7795196878246 455.51362011680055 1032.7795196878246 444.25284431645065L1032.7795196878246 444.25284431645065Q1032.7795196878246 426.90370648050487 1048.135123051938 418.0674996323834Q1063.4637867610268 409.2043531292371 1094.4443900395013 409.2043531292371L1094.4443900395013 409.2043531292371L1094.4443900395013 400.2065083509671Q1094.4443900395013 386.00931015291826 1089.2719762747474 379.59767225702524Q1084.0995625099936 373.212974016157 1071.2224074081578 373.212974016157L1071.2224074081578 373.212974016157Q1068.2051660453849 373.212974016157 1064.2719764117696 373.59012918650365Q1060.3387867781548 373.96728435685026 1057.025209210109 374.6407757324693L1057.025209210109 374.6407757324693L1051.3409419998848 394.71081872591594L1042.073700671367 393.7679308000493L1042.073700671367 366.9629740504125Q1047.7310282265667 364.96943957858025 1056.136200594292 363.4069395871441Q1064.5144333069925 361.844439595708 1073.0273642948168 361.844439595708L1073.0273642948168 361.844439595708Q1092.4508555676694 361.844439595708 1101.96055379141 370.4112498935819Q1111.47025201515 379.00499984648053 1111.47025201515 397.0815083680949L1111.47025201515 397.0815083680949ZM1094.4443900395013 445.3843098274906L1094.4443900395013 420.5728875496861Q1080.2202521864278 420.5728875496861 1069.2288729363258 422.40478409136983Q1058.2644333412482 424.2636202880783 1052.4724075109248 427.3886202709505L1052.4724075109248 427.3886202709505Q1051.3409419998848 430.0287064633771 1050.5866316591914 433.45004265152164Q1049.832321318498 436.87137883966625 1049.832321318498 440.64293054313276L1049.832321318498 440.64293054313276Q1049.832321318498 448.5093098103629 1055.0316747382767 452.95435288944833Q1060.2579678130805 457.39939596853384 1068.6631401808058 457.39939596853384L1068.6631401808058 457.39939596853384Q1075.7752091073426 457.39939596853384 1082.698700448706 453.8703011602902Q1089.5952521350446 450.3142666970218 1094.4443900395013 445.3843098274906L1094.4443900395013 445.3843098274906ZM1156.0015017710793 454.1935770205873L1156.0015017710793 376.44573261912825L1141.5079673677583 373.212974016157L1143.3937432194916 363.94573268763935L1165.6458982699437 361.844439595708L1171.1415878949947 378.70866364120815Q1175.6943895941795 370.1957326533838 1181.8096912848 366.0200861245459Q1187.924992975421 361.844439595708 1196.0607687928982 361.844439595708L1196.0607687928982 361.844439595708Q1199.940079116464 361.844439595708 1203.6846911649059 362.8950861416737Q1207.4293032133473 363.94573268763935 1210.177148025873 365.8315085393726L1210.177148025873 365.8315085393726L1207.806458383694 392.6364652890094L1197.1922343039382 392.6364652890094L1194.7407256966853 375.0987498678902Q1192.9357688100263 374.3444395271969 1190.4573205477482 374.3444395271969L1190.4573205477482 374.3444395271969Q1185.6351222983162 374.3444395271969 1180.8129240488838 377.81965502539106Q1175.9907257994519 381.2679308685604 1173.0543034017528 385.4435773973983L1173.0543034017528 385.4435773973983L1173.0543034017528 454.1935770205873L1190.6728377879463 457.39939596853384L1188.7601222811886 466.6935769520762L1143.3937432194916 466.6935769520762L1141.5079673677583 457.39939596853384L1156.0015017710793 454.1935770205873ZM1304.2234837173123 397.0815083680949L1304.2234837173123 454.1935770205873L1320.6027939723667 457.39939596853384L1318.7170181206334 466.6935769520762L1294.5521475634232 468.7679303889828L1289.0564579383718 452.0114649635817Q1281.6749924615874 461.0093097418518 1273.2428804388373 464.8886200654173Q1264.8107684160873 468.7679303889828 1254.9777943320496 468.7679303889828L1254.9777943320496 468.7679303889828Q1241.6965444048428 468.7679303889828 1233.6146478974147 462.1407752528917Q1225.5058117349618 455.51362011680055 1225.5058117349618 444.25284431645065L1225.5058117349618 444.25284431645065Q1225.5058117349618 426.90370648050487 1240.8614150990752 418.0674996323834Q1256.190078808164 409.2043531292371 1287.1706820866389 409.2043531292371L1287.1706820866389 409.2043531292371L1287.1706820866389 400.2065083509671Q1287.1706820866389 386.00931015291826 1281.9982683218846 379.59767225702524Q1276.8527942121555 373.212974016157 1263.9756391103197 373.212974016157L1263.9756391103197 373.212974016157Q1260.931458092522 373.212974016157 1256.9982684589068 373.59012918650365Q1253.065078825292 373.96728435685026 1249.7515012572462 374.6407757324693L1249.7515012572462 374.6407757324693L1244.0672340470219 394.71081872591594L1234.7999927185042 393.7679308000493L1234.7999927185042 366.9629740504125Q1240.4842599287285 364.96943957858025 1248.862492641429 363.4069395871441Q1257.2407253541296 361.844439595708 1265.753656341954 361.844439595708L1265.753656341954 361.844439595708Q1285.1771476148065 361.844439595708 1294.686845838547 370.4112498935819Q1304.2234837173123 379.00499984648053 1304.2234837173123 397.0815083680949L1304.2234837173123 397.0815083680949ZM1287.1706820866389 445.3843098274906L1287.1706820866389 420.5728875496861Q1272.9734838885897 420.5728875496861 1261.9821046384877 422.40478409136983Q1250.9907253883853 424.2636202880783 1245.2256392130862 427.3886202709505L1245.2256392130862 427.3886202709505Q1244.0672340470219 430.0287064633771 1243.3129237063285 433.45004265152164Q1242.5586133656352 436.87137883966625 1242.5586133656352 440.64293054313276L1242.5586133656352 440.64293054313276Q1242.5586133656352 448.5093098103629 1247.7579667854138 452.95435288944833Q1252.9842598602177 457.39939596853384 1261.4163718829677 457.39939596853384L1261.4163718829677 457.39939596853384Q1268.5015011544797 457.39939596853384 1275.424992495843 453.8703011602902Q1282.3484838372065 450.3142666970218 1287.1706820866389 445.3843098274906L1287.1706820866389 445.3843098274906ZM1334.045681829722 466.6935769520762L1332.1599059779887 457.39939596853384L1346.6534403813102 454.1935770205873L1346.6534403813102 333.34228457951133L1332.1599059779887 330.10952597654006L1334.045681829722 320.84228464802237L1363.7062420119837 318.7679312111158L1363.7062420119837 412.4371117322084L1365.0262851081966 413.0028444877284L1405.651284885536 375.0179309028159L1396.9497763125382 373.212974016157L1398.8355521642711 363.94573268763935L1429.3312416523004 363.94573268763935L1431.2170175040337 373.212974016157L1422.973483066457 375.0179309028159L1388.9756384252087 405.78301694109257L1421.4648623850703 454.1935770205873L1434.1534399017323 457.39939596853384L1432.2676640499994 466.6935769520762L1411.146974510587 466.6935769520762L1377.3377074545124 416.31642205577396L1363.7062420119837 428.6278444020895L1363.7062420119837 454.1935770205873L1378.17283676028 457.39939596853384L1376.2870609085467 466.6935769520762L1334.045681829722 466.6935769520762Z " fill="#4831d4" transform="matrix(0.610116009428199,0,0,0.6101160094281989,0,59.75586188029702)"/></g></svg>